<svg id="Layer_1" data-name="Layer 1" xmlns="http://www.w3.org/2000/svg" xmlns:xlink="http://www.w3.org/1999/xlink" width="1019.85" height="300" viewBox="0 0 1019.85 300"><defs><style>.cls-1{fill:#f8ccce;}.cls-2{fill:url(#linear-gradient);}.cls-3{fill:url(#linear-gradient-2);}.cls-4{fill:url(#linear-gradient-3);}.cls-5{fill:url(#linear-gradient-4);}.cls-6{fill:url(#linear-gradient-5);}.cls-7{fill:url(#linear-gradient-6);}.cls-8{fill:url(#linear-gradient-7);}.cls-9{fill:url(#linear-gradient-8);}.cls-10{fill:#f98f8f;}</style><linearGradient id="linear-gradient" x1="186.5" y1="82.24" x2="300.61" y2="82.24" gradientUnits="userSpaceOnUse"><stop offset="0.8" stop-color="#f8ccce"/><stop offset="0.82" stop-color="#f8bbbc"/><stop offset="0.85" stop-color="#f9a7a8"/><stop offset="0.89" stop-color="#f99a9a"/><stop offset="0.93" stop-color="#f99192"/><stop offset="1" stop-color="#f98f8f"/></linearGradient><linearGradient id="linear-gradient-2" x1="169.85" y1="185.99" x2="339.85" y2="185.99" xlink:href="#linear-gradient"/><linearGradient id="linear-gradient-3" x1="356.5" y1="82.24" x2="470.61" y2="82.24" gradientUnits="userSpaceOnUse"><stop offset="0.6" stop-color="#f8ccce"/><stop offset="0.64" stop-color="#f8bbbc"/><stop offset="0.7" stop-color="#f9a7a8"/><stop offset="0.77" stop-color="#f99a9a"/><stop offset="0.86" stop-color="#f99192"/><stop offset="1" stop-color="#f98f8f"/></linearGradient><linearGradient id="linear-gradient-4" x1="339.85" y1="185.99" x2="509.85" y2="185.99" xlink:href="#linear-gradient-3"/><linearGradient id="linear-gradient-5" x1="526.5" y1="82.24" x2="640.61" y2="82.24" gradientUnits="userSpaceOnUse"><stop offset="0.4" stop-color="#f8ccce"/><stop offset="0.46" stop-color="#f8bbbc"/><stop offset="0.55" stop-color="#f9a7a8"/><stop offset="0.66" stop-color="#f99a9a"/><stop offset="0.79" stop-color="#f99192"/><stop offset="1" stop-color="#f98f8f"/></linearGradient><linearGradient id="linear-gradient-6" x1="509.85" y1="185.99" x2="679.85" y2="185.99" xlink:href="#linear-gradient-5"/><linearGradient id="linear-gradient-7" x1="696.5" y1="82.24" x2="810.61" y2="82.24" gradientUnits="userSpaceOnUse"><stop offset="0.2" stop-color="#f8ccce"/><stop offset="0.28" stop-color="#f8bbbc"/><stop offset="0.4" stop-color="#f9a7a8"/><stop offset="0.55" stop-color="#f99a9a"/><stop offset="0.72" stop-color="#f99192"/><stop offset="1" stop-color="#f98f8f"/></linearGradient><linearGradient id="linear-gradient-8" x1="679.85" y1="185.99" x2="849.85" y2="185.99" xlink:href="#linear-gradient-7"/></defs><title>logo2</title><path class="cls-1" d="M130.76,23.26a27.93,27.93,0,0,1-3.52,12.22A97.92,97.92,0,0,1,120,46.73q-2,2.72-3.85,5.43Q104.24,70.09,93,88.23,70.46,124.52,50.36,162a5.08,5.08,0,0,1-3.9,2.44,5.6,5.6,0,0,1-4.23-1.08c-1.14-.91-1.32-2.19-.53-3.86Q60,125.5,80.3,92.36,90.45,75.74,101,59.44q5.34-8.14,10.8-16.19c.64-1,1.35-2.06,2.14-3.15a55.86,55.86,0,0,0,5.56-8.69A210,210,0,0,0,51.32,88.34q-3,5.2-6,10.54Q37.22,113.22,29,127.67a4.65,4.65,0,0,1-3.1,2.17l-.22.33a4.69,4.69,0,0,1-3.74,2.55,5.46,5.46,0,0,1-4.17-1.09c-1.14-.9-1.39-2.19-.75-3.85a208.6,208.6,0,0,1,13.69-25.32,5.6,5.6,0,0,1-5.14.11c-1.63-.8-2.17-2.28-1.6-4.45q3.63-9.47,7.91-18.58a31.54,31.54,0,0,0,.86-3.48,3.92,3.92,0,0,1,2.35-2.82A247.9,247.9,0,0,1,90.67,1.42a6.64,6.64,0,0,1,4-1.41A5.44,5.44,0,0,1,98.53,1.1c1,.79,1,2,.27,3.58q-4.5,7.83-8.88,15.65Q79.44,38.8,68.86,57.27a219.16,219.16,0,0,1,55.38-36.62,6.25,6.25,0,0,1,2.68-.32,5.66,5.66,0,0,1,2.67.86A2.36,2.36,0,0,1,130.76,23.26ZM41.06,81a72.11,72.11,0,0,1-5.13,13.8q3.42-5,7.16-9.67L74.31,30A240.94,240.94,0,0,0,41.06,81Z"/><path class="cls-1" d="M165.66,156.38c2.07,0,3.39.6,4,1.79a3.83,3.83,0,0,1-.21,3.7,4.91,4.91,0,0,1-4.07,2.22q-26.4,1.31-52.71,4.57a10.42,10.42,0,0,0-7.91,5.43q-15.61,28.47-28.44,58.34a4.15,4.15,0,0,1-3.64,2.39,6.78,6.78,0,0,1-4.49-1.08,3,3,0,0,1-1.07-3.81q12.19-28.35,26.84-55.41a2.1,2.1,0,0,0-2.14-3q-10.05,1.53-20.1,3.37a13.41,13.41,0,0,0-9.3,6.74A906.33,906.33,0,0,0,9.45,297.51,4.25,4.25,0,0,1,5.87,300a6.55,6.55,0,0,1-4.49-1.09,3.15,3.15,0,0,1-1.12-4A897.54,897.54,0,0,1,51.58,182a2,2,0,0,0-.11-2.12,1.79,1.79,0,0,0-1.92-.71q-17.53,3.7-35,8.26a4.29,4.29,0,0,1-4.33-.92,3.86,3.86,0,0,1-1.18-3.59q.38-2,3.37-3,20-5.22,40.09-9.35a13.41,13.41,0,0,0,9-6.52,897.27,897.27,0,0,1,58.81-90.5A4.51,4.51,0,0,1,124.45,72a6.12,6.12,0,0,1,4,1.9q1.48,1.62,0,4a888.85,888.85,0,0,0-55.71,85.18,2.21,2.21,0,0,0,.11,2.39,2,2,0,0,0,2.14.86q10.26-1.73,20.42-3.15a10.8,10.8,0,0,0,7.7-5.21,666.25,666.25,0,0,1,43.51-66.49,4.41,4.41,0,0,1,4.12-1.69,6.16,6.16,0,0,1,4,1.9q1.5,1.63,0,4A688,688,0,0,0,114,157.47a2.12,2.12,0,0,0,.11,2.17,1.94,1.94,0,0,0,1.92.87Q140.76,157.69,165.66,156.38Z"/><path class="cls-2" d="M300.61,23.26a27.81,27.81,0,0,1-3.53,12.22,96.6,96.6,0,0,1-7.27,11.25c-1.35,1.81-2.64,3.62-3.85,5.43Q274.1,70.09,262.87,88.23,240.31,124.52,220.21,162a5.08,5.08,0,0,1-3.91,2.44,5.58,5.58,0,0,1-4.22-1.08c-1.14-.91-1.32-2.19-.53-3.86q18.28-34,38.59-67.14,10.17-16.62,20.75-32.92,5.34-8.14,10.8-16.19,1-1.52,2.13-3.15a55.13,55.13,0,0,0,5.56-8.69,210,210,0,0,0-68.21,56.93q-3,5.2-6,10.54-8.13,14.34-16.36,28.79a4.6,4.6,0,0,1-3.1,2.17l-.21.33a4.7,4.7,0,0,1-3.74,2.55,5.46,5.46,0,0,1-4.17-1.09c-1.14-.9-1.39-2.19-.75-3.85a209.92,209.92,0,0,1,13.68-25.32,5.58,5.58,0,0,1-5.13.11q-2.46-1.2-1.6-4.45,3.63-9.47,7.91-18.58a29.38,29.38,0,0,0,.85-3.48,3.93,3.93,0,0,1,2.36-2.82,247.9,247.9,0,0,1,55.6-71.82,6.61,6.61,0,0,1,4-1.41,5.41,5.41,0,0,1,3.84,1.09c1,.79,1.06,2,.27,3.58q-4.49,7.83-8.87,15.65Q249.29,38.8,238.7,57.27a219,219,0,0,1,55.39-36.62,6.18,6.18,0,0,1,2.67-.32,5.66,5.66,0,0,1,2.68.86A2.36,2.36,0,0,1,300.61,23.26ZM210.9,81a71.44,71.44,0,0,1-5.13,13.8q3.42-5,7.17-9.67L244.16,30A241,241,0,0,0,210.9,81Z"/><path class="cls-3" d="M335.51,156.38c2.07,0,3.39.6,4,1.79a3.81,3.81,0,0,1-.22,3.7c-.71,1.26-2.07,2-4.06,2.22q-26.42,1.31-52.71,4.57a10.4,10.4,0,0,0-7.91,5.43Q259,202.56,246.13,232.43a4.16,4.16,0,0,1-3.64,2.39,6.76,6.76,0,0,1-4.49-1.08,3,3,0,0,1-1.07-3.81q12.19-28.35,26.84-55.41a2.1,2.1,0,0,0-2.14-3q-10,1.53-20.1,3.37a13.37,13.37,0,0,0-9.3,6.74A906.33,906.33,0,0,0,179.3,297.51a4.26,4.26,0,0,1-3.58,2.45,6.54,6.54,0,0,1-4.49-1.09,3.16,3.16,0,0,1-1.13-4A897.6,897.6,0,0,1,221.43,182a2,2,0,0,0-.11-2.12,1.8,1.8,0,0,0-1.92-.71q-17.55,3.7-35,8.26a4.3,4.3,0,0,1-4.33-.92,3.88,3.88,0,0,1-1.17-3.59q.38-2,3.36-3,20-5.22,40.1-9.35a13.43,13.43,0,0,0,9-6.52,897.27,897.27,0,0,1,58.81-90.5A4.5,4.5,0,0,1,294.29,72a6.1,6.1,0,0,1,4,1.9q1.5,1.62,0,4a890.67,890.67,0,0,0-55.7,85.18,2.21,2.21,0,0,0,.1,2.39,2,2,0,0,0,2.14.86q10.28-1.73,20.42-3.15A10.78,10.78,0,0,0,273,158a666.34,666.34,0,0,1,43.52-66.49,4.41,4.41,0,0,1,4.12-1.69,6.12,6.12,0,0,1,4,1.9q1.5,1.63,0,4a690.1,690.1,0,0,0-40.73,61.72,2.12,2.12,0,0,0,.11,2.17,1.92,1.92,0,0,0,1.92.87Q310.61,157.69,335.51,156.38Z"/><path class="cls-4" d="M470.61,23.26a27.81,27.81,0,0,1-3.53,12.22,96.6,96.6,0,0,1-7.27,11.25c-1.35,1.81-2.64,3.62-3.85,5.43Q444.1,70.09,432.87,88.23,410.31,124.52,390.21,162a5.08,5.08,0,0,1-3.91,2.44,5.58,5.58,0,0,1-4.22-1.08c-1.14-.91-1.32-2.19-.53-3.86q18.29-34,38.59-67.14,10.17-16.62,20.75-32.92,5.34-8.14,10.8-16.19,1-1.52,2.13-3.15a55.13,55.13,0,0,0,5.56-8.69,210,210,0,0,0-68.21,56.93q-3,5.2-6,10.54-8.13,14.34-16.36,28.79a4.6,4.6,0,0,1-3.1,2.17l-.21.33a4.7,4.7,0,0,1-3.74,2.55,5.46,5.46,0,0,1-4.17-1.09c-1.14-.9-1.39-2.19-.75-3.85a209.92,209.92,0,0,1,13.68-25.32,5.58,5.58,0,0,1-5.13.11q-2.46-1.2-1.6-4.45,3.63-9.47,7.91-18.58a29.38,29.38,0,0,0,.85-3.48,3.93,3.93,0,0,1,2.36-2.82,247.9,247.9,0,0,1,55.6-71.82,6.61,6.61,0,0,1,4-1.41,5.41,5.41,0,0,1,3.84,1.09c1,.79,1.06,2,.27,3.58q-4.49,7.83-8.87,15.65Q419.29,38.8,408.7,57.27a219,219,0,0,1,55.39-36.62,6.18,6.18,0,0,1,2.67-.32,5.66,5.66,0,0,1,2.68.86A2.36,2.36,0,0,1,470.61,23.26ZM380.9,81a71.44,71.44,0,0,1-5.13,13.8q3.42-5,7.17-9.67L414.16,30A241,241,0,0,0,380.9,81Z"/><path class="cls-5" d="M505.51,156.38c2.07,0,3.39.6,4,1.79a3.81,3.81,0,0,1-.22,3.7c-.71,1.26-2.07,2-4.06,2.22q-26.42,1.31-52.71,4.57a10.4,10.4,0,0,0-7.91,5.43Q429,202.56,416.13,232.43a4.16,4.16,0,0,1-3.64,2.39,6.76,6.76,0,0,1-4.49-1.08,3,3,0,0,1-1.07-3.81q12.19-28.35,26.84-55.41a2.1,2.1,0,0,0-2.14-3q-10,1.53-20.1,3.37a13.37,13.37,0,0,0-9.3,6.74A906.33,906.33,0,0,0,349.3,297.51a4.26,4.26,0,0,1-3.58,2.45,6.54,6.54,0,0,1-4.49-1.09,3.16,3.16,0,0,1-1.13-4A897.6,897.6,0,0,1,391.43,182a2,2,0,0,0-.11-2.12,1.8,1.8,0,0,0-1.92-.71q-17.55,3.7-35,8.26a4.3,4.3,0,0,1-4.33-.92,3.88,3.88,0,0,1-1.17-3.59q.38-2,3.36-3,20-5.22,40.1-9.35a13.43,13.43,0,0,0,9-6.52,897.27,897.27,0,0,1,58.81-90.5A4.5,4.5,0,0,1,464.29,72a6.1,6.1,0,0,1,4,1.9q1.5,1.62,0,4a890.67,890.67,0,0,0-55.7,85.18,2.21,2.21,0,0,0,.1,2.39,2,2,0,0,0,2.14.86q10.28-1.73,20.42-3.15A10.78,10.78,0,0,0,443,158a666.34,666.34,0,0,1,43.52-66.49,4.41,4.41,0,0,1,4.12-1.69,6.12,6.12,0,0,1,4,1.9q1.5,1.63,0,4a690.1,690.1,0,0,0-40.73,61.72,2.12,2.12,0,0,0,.11,2.17,1.92,1.92,0,0,0,1.92.87Q480.61,157.69,505.51,156.38Z"/><path class="cls-6" d="M640.61,23.26a27.81,27.81,0,0,1-3.53,12.22,96.6,96.6,0,0,1-7.27,11.25c-1.35,1.81-2.64,3.62-3.85,5.43q-11.87,17.93-23.09,36.07Q580.31,124.52,560.21,162a5.08,5.08,0,0,1-3.91,2.44,5.58,5.58,0,0,1-4.22-1.08c-1.14-.91-1.32-2.19-.53-3.86q18.29-34,38.59-67.14,10.17-16.62,20.75-32.92,5.34-8.14,10.8-16.19,1-1.52,2.13-3.15a55.13,55.13,0,0,0,5.56-8.69,210,210,0,0,0-68.21,56.93q-3,5.2-6,10.54-8.13,14.34-16.36,28.79a4.6,4.6,0,0,1-3.1,2.17l-.21.33a4.7,4.7,0,0,1-3.74,2.55,5.46,5.46,0,0,1-4.17-1.09c-1.14-.9-1.39-2.19-.75-3.85a209.92,209.92,0,0,1,13.68-25.32,5.58,5.58,0,0,1-5.13.11q-2.46-1.2-1.6-4.45,3.63-9.47,7.91-18.58a29.38,29.38,0,0,0,.85-3.48,3.93,3.93,0,0,1,2.36-2.82,247.9,247.9,0,0,1,55.6-71.82,6.61,6.61,0,0,1,4-1.41,5.41,5.41,0,0,1,3.84,1.09c1,.79,1.06,2,.27,3.58q-4.49,7.83-8.87,15.65Q589.29,38.8,578.7,57.27a219,219,0,0,1,55.39-36.62,6.18,6.18,0,0,1,2.67-.32,5.66,5.66,0,0,1,2.68.86A2.36,2.36,0,0,1,640.61,23.26ZM550.9,81a71.44,71.44,0,0,1-5.13,13.8q3.42-5,7.17-9.67L584.16,30A241,241,0,0,0,550.9,81Z"/><path class="cls-7" d="M675.51,156.38c2.07,0,3.39.6,4,1.79a3.81,3.81,0,0,1-.22,3.7c-.71,1.26-2.07,2-4.06,2.22q-26.41,1.31-52.71,4.57a10.4,10.4,0,0,0-7.91,5.43Q599,202.56,586.13,232.43a4.16,4.16,0,0,1-3.64,2.39,6.76,6.76,0,0,1-4.49-1.08,3,3,0,0,1-1.07-3.81q12.2-28.35,26.84-55.41a2.1,2.1,0,0,0-2.14-3q-10.05,1.53-20.1,3.37a13.37,13.37,0,0,0-9.3,6.74A906.33,906.33,0,0,0,519.3,297.51a4.26,4.26,0,0,1-3.58,2.45,6.54,6.54,0,0,1-4.49-1.09,3.16,3.16,0,0,1-1.13-4A897.6,897.6,0,0,1,561.43,182a2,2,0,0,0-.11-2.12,1.8,1.8,0,0,0-1.92-.71q-17.55,3.7-35,8.26a4.3,4.3,0,0,1-4.33-.92,3.88,3.88,0,0,1-1.17-3.59q.38-2,3.36-3,20-5.22,40.1-9.35a13.43,13.43,0,0,0,9-6.52,897.27,897.27,0,0,1,58.81-90.5A4.5,4.5,0,0,1,634.29,72a6.1,6.1,0,0,1,4,1.9q1.5,1.62,0,4a890.67,890.67,0,0,0-55.7,85.18,2.21,2.21,0,0,0,.1,2.39,2,2,0,0,0,2.14.86q10.27-1.73,20.42-3.15A10.78,10.78,0,0,0,613,158a666.34,666.34,0,0,1,43.52-66.49,4.41,4.41,0,0,1,4.12-1.69,6.12,6.12,0,0,1,4,1.9q1.5,1.63,0,4a690.1,690.1,0,0,0-40.73,61.72,2.12,2.12,0,0,0,.11,2.17,1.92,1.92,0,0,0,1.92.87Q650.61,157.69,675.51,156.38Z"/><path class="cls-8" d="M810.61,23.26a27.81,27.81,0,0,1-3.53,12.22,96.6,96.6,0,0,1-7.27,11.25c-1.35,1.81-2.64,3.62-3.85,5.43q-11.87,17.93-23.09,36.07Q750.31,124.52,730.21,162a5.08,5.08,0,0,1-3.91,2.44,5.58,5.58,0,0,1-4.22-1.08c-1.14-.91-1.32-2.19-.53-3.86q18.29-34,38.59-67.14,10.17-16.62,20.75-32.92,5.34-8.14,10.8-16.19,1-1.52,2.13-3.15a55.13,55.13,0,0,0,5.56-8.69,210,210,0,0,0-68.21,56.93q-3,5.2-6,10.54-8.13,14.34-16.36,28.79a4.6,4.6,0,0,1-3.1,2.17l-.21.33a4.7,4.7,0,0,1-3.74,2.55,5.46,5.46,0,0,1-4.17-1.09c-1.14-.9-1.39-2.19-.75-3.85a209.92,209.92,0,0,1,13.68-25.32,5.58,5.58,0,0,1-5.13.11q-2.46-1.2-1.6-4.45,3.63-9.47,7.91-18.58a29.38,29.38,0,0,0,.85-3.48,3.93,3.93,0,0,1,2.36-2.82,247.9,247.9,0,0,1,55.6-71.82,6.61,6.61,0,0,1,4-1.41,5.41,5.41,0,0,1,3.84,1.09c1,.79,1.06,2,.27,3.58q-4.49,7.83-8.87,15.65Q759.29,38.8,748.7,57.27a219,219,0,0,1,55.39-36.62,6.18,6.18,0,0,1,2.67-.32,5.66,5.66,0,0,1,2.68.86A2.36,2.36,0,0,1,810.61,23.26ZM720.9,81a71.44,71.44,0,0,1-5.13,13.8q3.42-5,7.17-9.67L754.16,30A241,241,0,0,0,720.9,81Z"/><path class="cls-9" d="M845.51,156.38c2.07,0,3.39.6,4,1.79a3.81,3.81,0,0,1-.22,3.7c-.71,1.26-2.07,2-4.06,2.22q-26.41,1.31-52.71,4.57a10.4,10.4,0,0,0-7.91,5.43Q769,202.56,756.13,232.43a4.16,4.16,0,0,1-3.64,2.39,6.76,6.76,0,0,1-4.49-1.08,3,3,0,0,1-1.07-3.81q12.2-28.35,26.84-55.41a2.1,2.1,0,0,0-2.14-3q-10.05,1.53-20.1,3.37a13.37,13.37,0,0,0-9.3,6.74A906.33,906.33,0,0,0,689.3,297.51a4.26,4.26,0,0,1-3.58,2.45,6.54,6.54,0,0,1-4.49-1.09,3.16,3.16,0,0,1-1.13-4A897.6,897.6,0,0,1,731.43,182a2,2,0,0,0-.11-2.12,1.8,1.8,0,0,0-1.92-.71q-17.55,3.7-35,8.26a4.3,4.3,0,0,1-4.33-.92,3.88,3.88,0,0,1-1.17-3.59q.38-2,3.36-3,20-5.22,40.1-9.35a13.43,13.43,0,0,0,9-6.52,897.27,897.27,0,0,1,58.81-90.5A4.5,4.5,0,0,1,804.29,72a6.1,6.1,0,0,1,4,1.9q1.5,1.62,0,4a890.67,890.67,0,0,0-55.7,85.18,2.21,2.21,0,0,0,.1,2.39,2,2,0,0,0,2.14.86q10.27-1.73,20.42-3.15A10.78,10.78,0,0,0,783,158a666.34,666.34,0,0,1,43.52-66.49,4.41,4.41,0,0,1,4.12-1.69,6.12,6.12,0,0,1,4,1.9q1.5,1.63,0,4a690.1,690.1,0,0,0-40.73,61.72,2.12,2.12,0,0,0,.11,2.17,1.92,1.92,0,0,0,1.92.87Q820.61,157.69,845.51,156.38Z"/><path class="cls-10" d="M980.61,23.26a27.81,27.81,0,0,1-3.53,12.22,96.6,96.6,0,0,1-7.27,11.25c-1.35,1.81-2.64,3.62-3.85,5.43q-11.87,17.93-23.09,36.07Q920.31,124.52,900.21,162a5.08,5.08,0,0,1-3.91,2.44,5.58,5.58,0,0,1-4.22-1.08c-1.14-.91-1.32-2.19-.53-3.86q18.29-34,38.59-67.14,10.17-16.62,20.75-32.92,5.34-8.14,10.8-16.19,1-1.52,2.13-3.15a55.13,55.13,0,0,0,5.56-8.69,210,210,0,0,0-68.21,56.93q-3,5.2-6,10.54-8.13,14.34-16.36,28.79a4.6,4.6,0,0,1-3.1,2.17l-.21.33a4.7,4.7,0,0,1-3.74,2.55,5.46,5.46,0,0,1-4.17-1.09c-1.14-.9-1.39-2.19-.75-3.85a209.92,209.92,0,0,1,13.68-25.32,5.58,5.58,0,0,1-5.13.11q-2.46-1.2-1.6-4.45,3.63-9.47,7.91-18.58a29.38,29.38,0,0,0,.85-3.48,3.93,3.93,0,0,1,2.36-2.82,247.9,247.9,0,0,1,55.6-71.82,6.61,6.61,0,0,1,4-1.41,5.41,5.41,0,0,1,3.84,1.09c1,.79,1.06,2,.27,3.58q-4.49,7.83-8.87,15.65Q929.29,38.8,918.7,57.27a219,219,0,0,1,55.39-36.62,6.18,6.18,0,0,1,2.67-.32,5.66,5.66,0,0,1,2.68.86A2.36,2.36,0,0,1,980.61,23.26ZM890.9,81a71.44,71.44,0,0,1-5.13,13.8q3.42-5,7.17-9.67L924.16,30A241,241,0,0,0,890.9,81Z"/><path class="cls-10" d="M1015.51,156.38c2.07,0,3.39.6,4,1.79a3.81,3.81,0,0,1-.22,3.7c-.71,1.26-2.07,2-4.06,2.22q-26.41,1.31-52.71,4.57a10.4,10.4,0,0,0-7.91,5.43Q939,202.56,926.13,232.43a4.16,4.16,0,0,1-3.64,2.39,6.76,6.76,0,0,1-4.49-1.08,3,3,0,0,1-1.07-3.81q12.2-28.35,26.84-55.41a2.1,2.1,0,0,0-2.14-3q-10.05,1.53-20.1,3.37a13.37,13.37,0,0,0-9.3,6.74A906.33,906.33,0,0,0,859.3,297.51a4.26,4.26,0,0,1-3.58,2.45,6.54,6.54,0,0,1-4.49-1.09,3.16,3.16,0,0,1-1.13-4A897.6,897.6,0,0,1,901.43,182a2,2,0,0,0-.11-2.12,1.8,1.8,0,0,0-1.92-.71q-17.55,3.7-35,8.26a4.3,4.3,0,0,1-4.33-.92,3.88,3.88,0,0,1-1.17-3.59q.38-2,3.36-3,20-5.22,40.1-9.35a13.43,13.43,0,0,0,9-6.52,897.27,897.27,0,0,1,58.81-90.5A4.5,4.5,0,0,1,974.29,72a6.1,6.1,0,0,1,4,1.9q1.5,1.62,0,4a890.67,890.67,0,0,0-55.7,85.18,2.21,2.21,0,0,0,.1,2.39,2,2,0,0,0,2.14.86q10.27-1.73,20.42-3.15A10.78,10.78,0,0,0,953,158a666.34,666.34,0,0,1,43.52-66.49,4.41,4.41,0,0,1,4.12-1.69,6.12,6.12,0,0,1,4,1.9q1.5,1.63,0,4a690.1,690.1,0,0,0-40.73,61.72,2.12,2.12,0,0,0,.11,2.17,1.92,1.92,0,0,0,1.92.87Q990.61,157.69,1015.51,156.38Z"/></svg>
